# xmcd
#
# Track frame offsets: 
#        183
#        17918
#        38290
#        74115
#
# Disc length: 1293 seconds
#
# Revision: 6
# Processed by: cddbd v1.5.2PL0 Copyright (c) Steve Scherf et al.
# Submitted via: ExactAudioCopy v0.99pb3
#
DISCID=2e050b04
DTITLE=Joe Cocker - Summer In The City
DYEAR=1994
DGENRE=Pop
TTITLE0=Summer In The City (Single Edit)
TTITLE1=Angeline
TTITLE2=With A Little Help From My Friends (Live)
TTITLE3=Feelin Alright (Live)
EXTD=YEAR: 1994 ID3G: 13
EXTT0=
EXTT1=
EXTT2=
EXTT3=
PLAYORDER=
